<svg width="48" height="55" viewBox="0 0 48 55" fill="none" xmlns="http://www.w3.org/2000/svg">
<rect x="5.92991e-10" width="48" height="55" rx="10" fill="#6CB4EE"/>
<path d="M34.5 10L13.5 10C11.575 10 10 11.575 10 13.5L10 41.5C10 43.425 11.575 45 13.5 45L34.5 45C36.425 45 38 43.425 38 41.5L38 13.5C38 11.575 36.425 10 34.5 10ZM18.75 13.5L22.25 13.5L22.25 22.25L20.5 20.9375L18.75 22.25L18.75 13.5ZM34.5 41.5L13.5 41.5L13.5 13.5L15.25 13.5L15.25 29.25L20.5 25.3125L25.75 29.25L25.75 13.5L34.5 13.5L34.5 41.5Z" fill="#F5F5F5"/>
</svg>
