<svg width="48" height="49" viewBox="0 0 48 49" fill="none" xmlns="http://www.w3.org/2000/svg">
<rect x="5.18412e-10" width="48" height="48.014" rx="10" fill="#6CB4EE"/>
<path d="M35.1986 10L12.8014 10C11.2606 10 10 11.2606 10 12.8014L10 38.014L15.5888 32.4112L35.1986 32.4112C36.7394 32.4112 38 31.1506 38 29.6098L38 12.8014C38 11.2606 36.7394 10 35.1986 10ZM25.3937 26.8084L22.5923 26.8084L22.5923 24.007L25.3937 24.007L25.3937 26.8084ZM25.3937 19.8049C25.3937 20.5753 24.7634 21.2056 23.993 21.2056C23.2226 21.2056 22.5923 20.5753 22.5923 19.8049L22.5923 17.0035C22.5923 16.2331 23.2226 15.6028 23.993 15.6028C24.7634 15.6028 25.3937 16.2331 25.3937 17.0035L25.3937 19.8049Z" fill="#F5F5F5"/>
</svg>
