<svg width="48" height="45" viewBox="0 0 48 45" fill="none" xmlns="http://www.w3.org/2000/svg">
<rect x="4.83851e-10" width="48" height="44.77" rx="10" fill="#6CB4EE"/>
<path d="M19.6923 19.9467L21.1812 22.9231L18.2035 22.9231L19.6923 19.9467ZM38 12.1538L38 33.6923C38.0001 33.876 37.9533 34.0566 37.8639 34.2171C37.7746 34.3775 37.6456 34.5125 37.4894 34.6091C37.3332 34.7056 37.1549 34.7607 36.9714 34.7689C36.7879 34.7772 36.6054 34.7383 36.4412 34.6562L32.6154 32.7419L28.7896 34.6562C28.64 34.731 28.475 34.77 28.3077 34.77C28.1404 34.77 27.9754 34.731 27.8258 34.6562L24 32.7419L20.1742 34.6562C20.0246 34.731 19.8596 34.77 19.6923 34.77C19.525 34.77 19.36 34.731 19.2104 34.6562L15.3846 32.7419L11.5588 34.6562C11.3946 34.7383 11.2121 34.7772 11.0286 34.7689C10.8451 34.7607 10.6668 34.7056 10.5106 34.6091C10.3544 34.5125 10.2254 34.3775 10.1361 34.2171C10.0467 34.0566 9.99987 33.876 10 33.6923L10 12.1538C10 11.5826 10.2269 11.0348 10.6308 10.6308C11.0348 10.2269 11.5826 10 12.1538 10L35.8462 10C36.4174 10 36.9652 10.2269 37.3692 10.6308C37.7731 11.0348 38 11.5826 38 12.1538ZM24.9638 25.6719L20.6562 17.0565C20.5668 16.8773 20.4293 16.7266 20.2591 16.6212C20.0888 16.5158 19.8925 16.46 19.6923 16.46C19.4921 16.46 19.2958 16.5158 19.1255 16.6212C18.9553 16.7266 18.8178 16.8773 18.7285 17.0565L14.4208 25.6719C14.3575 25.7985 14.3197 25.9363 14.3097 26.0775C14.2997 26.2186 14.3176 26.3604 14.3623 26.4946C14.4071 26.6289 14.4778 26.753 14.5705 26.8599C14.6632 26.9668 14.7761 27.0544 14.9027 27.1177C15.0293 27.181 15.1671 27.2187 15.3082 27.2287C15.4494 27.2388 15.5911 27.2209 15.7254 27.1762C15.8596 27.1314 15.9838 27.0607 16.0907 26.9679C16.1976 26.8752 16.2852 26.7623 16.3485 26.6358L17.1265 25.0769L22.2581 25.0769L23.0362 26.6358C23.0994 26.7623 23.187 26.8752 23.2939 26.9679C23.4009 27.0607 23.525 27.1314 23.6592 27.1762C23.7935 27.2209 23.9352 27.2388 24.0764 27.2287C24.2175 27.2187 24.3553 27.181 24.4819 27.1177C24.6085 27.0544 24.7214 26.9668 24.8141 26.8599C24.9068 26.753 24.9776 26.6289 25.0223 26.4946C25.0671 26.3604 25.0849 26.2186 25.0749 26.0775C25.0649 25.9363 25.0271 25.7985 24.9638 25.6719ZM34.7692 21.8462C34.7692 21.5605 34.6558 21.2866 34.4538 21.0847C34.2518 20.8827 33.9779 20.7692 33.6923 20.7692L31.5385 20.7692L31.5385 18.6154C31.5385 18.3298 31.425 18.0558 31.223 17.8539C31.0211 17.6519 30.7472 17.5385 30.4615 17.5385C30.1759 17.5385 29.902 17.6519 29.7 17.8539C29.4981 18.0558 29.3846 18.3298 29.3846 18.6154L29.3846 20.7692L27.2308 20.7692C26.9452 20.7692 26.6712 20.8827 26.4693 21.0847C26.2673 21.2866 26.1538 21.5605 26.1538 21.8462C26.1538 22.1318 26.2673 22.4057 26.4693 22.6077C26.6712 22.8096 26.9452 22.9231 27.2308 22.9231L29.3846 22.9231L29.3846 25.0769C29.3846 25.3625 29.4981 25.6365 29.7 25.8384C29.902 26.0404 30.1759 26.1538 30.4615 26.1538C30.7472 26.1538 31.0211 26.0404 31.223 25.8384C31.425 25.6365 31.5385 25.3625 31.5385 25.0769L31.5385 22.9231L33.6923 22.9231C33.9779 22.9231 34.2518 22.8096 34.4538 22.6077C34.6558 22.4057 34.7692 22.1318 34.7692 21.8462Z" fill="#F5F5F5"/>
</svg>
