<svg width="49" height="49" viewBox="0 0 49 49" fill="none" xmlns="http://www.w3.org/2000/svg">
<rect x="5.2205e-10" width="48.2794" height="48.2794" rx="10" fill="#6CB4EE"/>
<path d="M31.5462 27.5063L15.3866 27.5063L10 32.8929L10 11.3466C10 10.9895 10.1419 10.647 10.3944 10.3944C10.647 10.1419 10.9895 10 11.3466 10L31.5462 10C31.9034 10 32.2459 10.1419 32.4984 10.3944C32.751 10.647 32.8929 10.9895 32.8929 11.3466L32.8929 26.1597C32.8929 26.5168 32.751 26.8593 32.4984 27.1119C32.2459 27.3644 31.9034 27.5063 31.5462 27.5063ZM38.2794 19.4265L38.2794 38.2794L32.8929 32.8929L18.0798 32.8929C17.7227 32.8929 17.3802 32.751 17.1276 32.4984C16.8751 32.2459 16.7332 31.9034 16.7332 31.5462L16.7332 30.1996L35.5861 30.1996L35.5861 18.0798L36.9328 18.0798C37.2899 18.0798 37.6325 18.2217 37.885 18.4743C38.1375 18.7268 38.2794 19.0693 38.2794 19.4265ZM18.3357 12.6933C17.1641 12.6933 16.2215 12.9626 15.4943 13.4878C14.794 14.0399 14.4439 14.8075 14.4574 15.8713L14.4708 15.9117L17.0699 15.9117C17.0833 15.5078 17.2045 15.198 17.4469 14.9826C17.6963 14.7758 18.0118 14.6658 18.3357 14.6728C18.7532 14.6728 19.1033 14.8075 19.3457 15.0499C19.5881 15.3058 19.6958 15.6559 19.6958 16.0599C19.6958 16.4908 19.6015 16.8544 19.3861 17.1641C19.1975 17.4738 18.9148 17.7432 18.5646 17.9586C17.8778 18.4165 17.4065 18.8205 17.1507 19.1841C16.8813 19.5342 16.7332 20.0998 16.7332 20.7731L19.4265 20.7731C19.4265 20.3557 19.4803 20.019 19.6015 19.7766C19.7227 19.5342 19.9517 19.2918 20.2883 19.0763C20.8943 18.7532 21.3926 18.3626 21.7831 17.824C22.1736 17.2853 22.3756 16.7332 22.3756 16.0599C22.3756 15.0364 22.012 14.215 21.2848 13.609C20.5711 13.003 19.5881 12.6933 18.3357 12.6933ZM16.7332 22.1198L16.7332 24.813L19.4265 24.813L19.4265 22.1198L16.7332 22.1198ZM24.813 24.813L27.5063 24.813L27.5063 22.1198L24.813 22.1198L24.813 24.813ZM24.813 12.6933L24.813 20.7731L27.5063 20.7731L27.5063 12.6933L24.813 12.6933Z" fill="#F5F5F5"/>
</svg>
