<svg width="48" height="48" viewBox="0 0 48 48" fill="none" xmlns="http://www.w3.org/2000/svg">
<rect x="5.18412e-10" width="48" height="48" rx="10" fill="#6CB4EE"/>
<path d="M10 10L38 10M15.0909 10L15.0909 16.3636C15.0909 20.1818 21.4545 20.4809 21.4545 24C21.4545 27.5191 15.0909 27.8182 15.0909 31.6364L15.0909 38M32.9091 10L32.9091 16.3636C32.9091 20.1818 26.5455 20.4809 26.5455 24C26.5455 27.5191 32.9091 27.8182 32.9091 31.6364L32.9091 38M10 38L38 38M21.4545 14.4545L26.5455 14.4545L26.5455 16.3636C26.5455 17.6364 24 18.9091 24 18.9091C24 18.9091 21.4545 17.6364 21.4545 16.3636L21.4545 14.4545ZM18.9091 35.4545C18.9091 32.9091 24 30.3636 24 30.3636C24 30.3636 29.0909 32.9091 29.0909 35.4545L29.0909 38L18.9091 38L18.9091 35.4545Z" stroke="#F5F5F5" stroke-width="2.54545"/>
</svg>
