<svg width="48" height="48" viewBox="0 0 48 48" fill="none" xmlns="http://www.w3.org/2000/svg">
<path d="M24 2.59125e-10C19.2533 2.07876e-10 14.6131 1.40758 10.6663 4.04473C6.71954 6.68188 3.6434 10.4302 1.8269 14.8156C0.0103987 19.201 -0.464881 24.0266 0.461164 28.6822C1.38721 33.3377 3.67299 37.6141 7.02945 40.9706C10.3859 44.327 14.6623 46.6128 19.3178 47.5388C23.9734 48.4649 28.799 47.9896 33.1844 46.1731C37.5698 44.3566 41.3181 41.2805 43.9553 37.3337C46.5924 33.3869 48 28.7467 48 24C47.9938 17.6367 45.4632 11.5358 40.9637 7.03628C36.4642 2.53675 30.3633 0.00619902 24 2.59125e-10ZM23.7424 39.3366C23.1215 39.3366 22.5259 39.0899 22.0868 38.6508C21.6477 38.2117 21.401 37.6161 21.401 36.9951C21.401 36.3741 21.6477 35.7786 22.0868 35.3395C22.5259 34.9003 23.1215 34.6537 23.7424 34.6537C24.3634 34.6537 24.959 34.9003 25.3981 35.3395C25.8372 35.7786 26.0839 36.3741 26.0839 36.9951C26.0839 37.6161 25.8372 38.2117 25.3981 38.6508C24.959 39.0899 24.3634 39.3366 23.7424 39.3366ZM32.6868 22.1971C32.2058 23.3132 31.497 24.3166 30.606 25.1431C29.715 25.9696 28.6612 26.6011 27.5122 26.9971C27.1289 27.1643 26.7975 27.4311 26.5522 27.7698C26.2786 28.1345 26.1307 28.5782 26.1307 29.0341L26.1307 30.6966C26.1307 31.3176 25.884 31.9131 25.4449 32.3522C25.0058 32.7914 24.4103 33.038 23.7893 33.038C23.1683 33.038 22.5727 32.7914 22.1336 32.3522C21.6945 31.9131 21.4478 31.3176 21.4478 30.6966L21.4478 28.9639C21.4621 27.5586 21.912 26.1924 22.7356 25.0537C23.5476 23.9709 24.6647 23.1556 25.9434 22.7122C26.4976 22.5342 27.0026 22.2296 27.4185 21.8224C27.8309 21.452 28.1576 20.9962 28.376 20.4867C28.5943 19.9772 28.6991 19.4263 28.6829 18.8722C28.6729 18.3133 28.5452 17.7628 28.3083 17.2566C27.9577 16.6117 27.4604 16.0583 26.8566 15.641C26.2407 15.195 25.5255 14.9057 24.7727 14.798C23.6278 14.5803 22.4432 14.7448 21.401 15.2663C20.3841 15.7679 19.561 16.5909 19.0595 17.6078C18.8018 18.1729 18.3302 18.6125 17.7483 18.8299C17.1665 19.0472 16.5222 19.0245 15.9571 18.7668C15.392 18.5091 14.9524 18.0375 14.735 17.4556C14.5177 16.8738 14.5403 16.2295 14.7981 15.6644C15.7024 13.6799 17.2451 12.0552 19.1801 11.0495C21.1152 10.0438 23.3313 9.71482 25.4751 10.1151C26.9276 10.338 28.3072 10.8994 29.5024 11.7541C30.7267 12.6258 31.7292 13.7726 32.4293 15.1024C32.9664 16.2111 33.261 17.4215 33.2933 18.653C33.3256 19.8844 33.0949 21.1086 32.6166 22.2439L32.6868 22.1971Z" fill="#6CB4EE"/>
</svg>
