<svg width="48" height="47" viewBox="0 0 48 47" fill="none" xmlns="http://www.w3.org/2000/svg">
<rect width="47.3333" height="46.9997" rx="10" fill="url(#paint0_linear_895_8951)"/>
<path d="M35.333 19.839C35.3371 21.6342 34.6454 23.3612 33.4034 24.6573C30.5555 27.6102 27.7929 30.689 24.84 33.5333C24.1622 34.175 23.0877 34.1517 22.4402 33.4808L13.9294 24.6585C11.3569 21.9915 11.3569 17.6865 13.9294 15.0207C14.5374 14.3825 15.2686 13.8744 16.0788 13.5273C16.889 13.1802 17.7613 13.0012 18.6427 13.0012C19.5241 13.0012 20.3964 13.1802 21.2066 13.5273C22.0168 13.8744 22.748 14.3825 23.356 15.0207L23.6664 15.3403L23.9755 15.0207C24.5843 14.3834 25.3157 13.8758 26.1257 13.5286C26.9357 13.1813 27.8076 13.0015 28.6889 13C30.4622 13 32.1574 13.728 33.4022 15.0207C34.6447 16.3167 35.3368 18.0436 35.333 19.839Z" stroke="white" stroke-width="2" stroke-linejoin="round"/>
<defs>
<linearGradient id="paint0_linear_895_8951" x1="47.3333" y1="44.3432" x2="0.295106" y2="2.32613" gradientUnits="userSpaceOnUse">
<stop stop-color="#E11019"/>
<stop offset="1" stop-color="#F22D30"/>
</linearGradient>
</defs>
</svg>
