<svg width="48" height="48" viewBox="0 0 48 48" fill="none" xmlns="http://www.w3.org/2000/svg">
<rect width="47.3333" height="47.3333" rx="10" fill="url(#paint0_linear_895_4228)"/>
<path d="M25.4167 35.3333C23.3167 35.3333 21.5278 34.5944 20.05 33.1167C18.5722 31.6389 17.8333 29.85 17.8333 27.75V27.0792C16.1611 26.8069 14.7708 26.0241 13.6625 24.7307C12.5542 23.4372 12 21.9159 12 20.1667V13.1667H15.5V12H17.8333V16.6667H15.5V15.5H14.3333V20.1667C14.3333 21.45 14.7903 22.5486 15.7042 23.4625C16.6181 24.3764 17.7167 24.8333 19 24.8333C20.2833 24.8333 21.3819 24.3764 22.2958 23.4625C23.2097 22.5486 23.6667 21.45 23.6667 20.1667V15.5H22.5V16.6667H20.1667V12H22.5V13.1667H26V20.1667C26 21.9167 25.4458 23.4384 24.3375 24.7318C23.2292 26.0253 21.8389 26.8077 20.1667 27.0792V27.75C20.1667 29.2083 20.6773 30.4481 21.6985 31.4693C22.7197 32.4906 23.9591 33.0008 25.4167 33C26.8742 32.9992 28.114 32.489 29.136 31.4693C30.158 30.4497 30.6682 29.2099 30.6667 27.75V25.7958C29.9861 25.5625 29.4273 25.1444 28.9902 24.5417C28.5531 23.9389 28.3341 23.2583 28.3333 22.5C28.3333 21.5278 28.6736 20.7014 29.3542 20.0208C30.0347 19.3403 30.8611 19 31.8333 19C32.8056 19 33.6319 19.3403 34.3125 20.0208C34.9931 20.7014 35.3333 21.5278 35.3333 22.5C35.3333 23.2583 35.1148 23.9389 34.6777 24.5417C34.2406 25.1444 33.6813 25.5625 33 25.7958V27.75C33 29.85 32.2611 31.6389 30.7833 33.1167C29.3056 34.5944 27.5167 35.3333 25.4167 35.3333ZM31.8333 23.6667C32.1639 23.6667 32.4412 23.5547 32.6652 23.3307C32.8892 23.1067 33.0008 22.8298 33 22.5C32.9992 22.1702 32.8872 21.8933 32.664 21.6693C32.4408 21.4453 32.1639 21.3333 31.8333 21.3333C31.5028 21.3333 31.2259 21.4453 31.0027 21.6693C30.7794 21.8933 30.6674 22.1702 30.6667 22.5C30.6659 22.8298 30.7779 23.1071 31.0027 23.3318C31.2274 23.5566 31.5043 23.6682 31.8333 23.6667Z" fill="white"/>
<defs>
<linearGradient id="paint0_linear_895_4228" x1="47.3333" y1="44.658" x2="3.00678e-06" y2="2.67536" gradientUnits="userSpaceOnUse">
<stop stop-color="#009E3D"/>
<stop offset="1" stop-color="#00BB4B"/>
</linearGradient>
</defs>
</svg>
