<svg width="48" height="47" viewBox="0 0 48 47" fill="none" xmlns="http://www.w3.org/2000/svg">
<rect width="47.3333" height="46.1897" rx="10" fill="url(#paint0_linear_895_9061)"/>
<path d="M23.6663 34.295V16.0947M23.6663 16.0947C23.6662 15.4504 23.8144 14.8148 24.0993 14.237C24.3843 13.6591 24.7983 13.1546 25.3094 12.7624C25.8205 12.3702 26.415 12.1008 27.0469 11.9751C27.6788 11.8494 28.3311 11.8708 28.9534 12.0375C29.5757 12.2043 30.1513 12.5119 30.6357 12.9367C31.1201 13.3615 31.5002 13.8921 31.7467 14.4873C31.9933 15.0825 32.0996 15.7265 32.0574 16.3693C32.0152 17.0122 31.8258 17.6368 31.5036 18.1947M23.6663 16.0947C23.6663 15.4504 23.5181 14.8148 23.2332 14.237C22.9482 13.6591 22.5342 13.1546 22.0231 12.7624C21.512 12.3702 20.9175 12.1008 20.2856 11.9751C19.6537 11.8494 19.0014 11.8708 18.3791 12.0375C17.7568 12.2043 17.1812 12.5119 16.6968 12.9367C16.2125 13.3615 15.8323 13.8921 15.5858 14.4873C15.3393 15.0825 15.233 15.7265 15.2751 16.3693C15.3173 17.0122 15.5068 17.6368 15.8289 18.1947M27.8663 27.2949C26.655 26.9408 25.5911 26.2037 24.8339 25.1941C24.0767 24.1845 23.667 22.9568 23.6663 21.6948C23.6655 22.9568 23.2558 24.1845 22.4986 25.1941C21.7414 26.2037 20.6775 26.9408 19.4662 27.2949" stroke="white" stroke-width="1.33333" stroke-linecap="round" stroke-linejoin="round"/>
<path d="M32.0625 16.2698C32.8854 16.4814 33.6494 16.8775 34.2966 17.4281C34.9438 17.9787 35.4572 18.6693 35.798 19.4477C36.1387 20.2261 36.2979 21.0718 36.2634 21.9208C36.2289 22.7698 36.0017 23.5998 35.599 24.348" stroke="white" stroke-width="1.33333" stroke-linecap="round" stroke-linejoin="round"/>
<path d="M32.0664 34.2953C33.2991 34.2952 34.4974 33.8884 35.4754 33.138C36.4533 32.3875 37.1564 31.3354 37.4754 30.1446C37.7945 28.9539 37.7117 27.6912 37.24 26.5523C36.7683 25.4134 35.934 24.4619 34.8665 23.8455" stroke="white" stroke-width="1.33333" stroke-linecap="round" stroke-linejoin="round"/>
<path d="M15.2664 34.2953C14.0336 34.2952 12.8354 33.8884 11.8574 33.138C10.8794 32.3875 10.1764 31.3354 9.85733 30.1446C9.53827 28.9539 9.62102 27.6912 10.0927 26.5523C10.5644 25.4134 11.3988 24.4619 12.4663 23.8455" stroke="white" stroke-width="1.33333" stroke-linecap="round" stroke-linejoin="round"/>
<path d="M15.2705 16.2698C14.4476 16.4814 13.6836 16.8775 13.0364 17.4281C12.3892 17.9787 11.8758 18.6693 11.535 19.4477C11.1942 20.2261 11.0351 21.0718 11.0696 21.9208C11.104 22.7698 11.3313 23.5998 11.734 24.348" stroke="white" stroke-width="1.33333" stroke-linecap="round" stroke-linejoin="round"/>
<defs>
<linearGradient id="paint0_linear_895_9061" x1="47.3333" y1="43.579" x2="1.02222" y2="1.48607" gradientUnits="userSpaceOnUse">
<stop stop-color="#8C2BF7"/>
<stop offset="1" stop-color="#9D44FF"/>
</linearGradient>
</defs>
</svg>
