<svg width="48" height="49" viewBox="0 0 48 49" fill="none" xmlns="http://www.w3.org/2000/svg">
<rect width="48" height="48.1334" rx="10" fill="url(#paint0_linear_895_8966)"/>
<path d="M15.0912 30.7921L21.2745 24.6088L25.0662 28.4004C25.5445 28.8788 26.3145 28.8554 26.7579 28.3538L35.1229 18.9388C35.5312 18.4838 35.5079 17.7838 35.0762 17.3404C34.9641 17.2287 34.8304 17.1409 34.6832 17.0824C34.5361 17.024 34.3786 16.9961 34.2203 17.0004C34.0621 17.0048 33.9063 17.0413 33.7627 17.1078C33.619 17.1743 33.4903 17.2693 33.3845 17.3871L25.9295 25.7638L22.0912 21.9254C21.9833 21.8173 21.855 21.7315 21.7139 21.6729C21.5728 21.6144 21.4215 21.5843 21.2687 21.5843C21.1159 21.5843 20.9646 21.6144 20.8235 21.6729C20.6823 21.7315 20.5541 21.8173 20.4462 21.9254L13.3412 29.0421C13.233 29.15 13.1472 29.2782 13.0887 29.4194C13.0301 29.5605 13 29.7118 13 29.8646C13 30.0174 13.0301 30.1687 13.0887 30.3098C13.1472 30.451 13.233 30.5792 13.3412 30.6871L13.4462 30.7921C13.9012 31.2471 14.6479 31.2471 15.0912 30.7921Z" fill="white"/>
<defs>
<linearGradient id="paint0_linear_895_8966" x1="48" y1="45.4128" x2="-0.117228" y2="2.85312" gradientUnits="userSpaceOnUse">
<stop stop-color="#F14900"/>
<stop offset="1" stop-color="#FD5D00"/>
</linearGradient>
</defs>
</svg>
