<svg width="48" height="48" viewBox="0 0 48 48" fill="none" xmlns="http://www.w3.org/2000/svg">
<rect width="47.0839" height="47.0839" rx="10" fill="url(#paint0_linear_895_9081)"/>
<path fill-rule="evenodd" clip-rule="evenodd" d="M26.0293 13.5786C25.2118 12.7611 24.2412 12.1126 23.1731 11.6702C22.1049 11.2277 20.9601 11 19.804 11C18.6478 11 17.503 11.2277 16.4348 11.6702C15.3667 12.1126 14.3961 12.7611 13.5786 13.5786C12.7611 14.3961 12.1126 15.3667 11.6702 16.4348C11.2277 17.503 11 18.6478 11 19.804C11 20.9601 11.2277 22.1049 11.6702 23.1731C12.1126 24.2412 12.7611 25.2118 13.5786 26.0293L21.0546 33.5053C22.7057 35.1563 24.945 36.0839 27.28 36.0839C29.6149 36.0839 31.8542 35.1563 33.5053 33.5053C35.1563 31.8542 36.0839 29.6149 36.0839 27.28C36.0839 24.945 35.1563 22.7057 33.5053 21.0546L26.0293 13.5786ZM14.8165 14.8153C16.1393 13.4926 17.9333 12.7495 19.804 12.7495C21.6746 12.7495 23.4686 13.4926 24.7915 14.8153L28.1725 18.1963L28.1596 18.2371C28.0546 18.5661 27.8761 19.0515 27.588 19.6488C27.0116 20.8435 25.9955 22.4931 24.2443 24.2455C22.4931 25.9955 20.8435 27.0128 19.6476 27.588C19.0503 27.8761 18.5661 28.0546 18.2371 28.1596L18.1963 28.1713L14.8165 24.7926C14.1613 24.1376 13.6417 23.36 13.2871 22.5041C12.9326 21.6482 12.7501 20.7309 12.7501 19.8045C12.7501 18.8781 12.9326 17.9608 13.2871 17.105C13.6417 16.2491 14.1613 15.4703 14.8165 14.8153ZM19.5636 29.5386L22.2913 32.2686C23.6144 33.5915 25.4088 34.3347 27.2798 34.3346C29.1508 34.3345 30.9451 33.5911 32.268 32.268C33.591 30.945 34.3341 29.1505 34.334 27.2795C34.3339 25.4085 33.5905 23.6142 32.2675 22.2913L29.5386 19.5636C29.436 19.8187 29.3115 20.1003 29.1653 20.4083C28.512 21.764 27.385 23.5793 25.481 25.4821C23.5793 27.385 21.764 28.512 20.4083 29.1653C20.1003 29.3123 19.8187 29.4367 19.5636 29.5386Z" fill="white"/>
<defs>
<linearGradient id="paint0_linear_895_9081" x1="47.0839" y1="44.4226" x2="2.99093e-06" y2="2.66126" gradientUnits="userSpaceOnUse">
<stop stop-color="#1B5CF9"/>
<stop offset="1" stop-color="#2973FF"/>
</linearGradient>
</defs>
</svg>
